<svg id="svg" version="1.1" xmlns="http://www.w3.org/2000/svg" xmlns:xlink="http://www.w3.org/1999/xlink" width="400" height="262.5531914893617" viewBox="0, 0, 400,262.5531914893617"><g id="svgg"><path id="path0" d="M96.520 62.508 C 96.429 62.656,95.160 62.771,93.615 62.771 C 92.107 62.771,90.873 62.872,90.873 62.996 C 90.873 63.120,89.544 63.305,87.919 63.407 C 86.293 63.509,84.924 63.703,84.876 63.838 C 84.828 63.973,84.267 64.084,83.629 64.084 C 82.991 64.084,82.469 64.185,82.469 64.309 C 82.469 64.433,81.617 64.613,80.576 64.710 C 79.535 64.807,78.619 64.989,78.540 65.115 C 78.462 65.241,77.717 65.429,76.884 65.533 C 76.052 65.636,75.306 65.826,75.227 65.953 C 75.148 66.081,74.795 66.185,74.443 66.185 C 74.090 66.185,73.802 66.292,73.802 66.423 C 73.802 66.554,73.211 66.742,72.489 66.842 C 71.766 66.941,71.175 67.129,71.175 67.260 C 71.175 67.391,70.939 67.498,70.650 67.498 C 70.361 67.498,70.125 67.605,70.125 67.736 C 70.125 67.867,69.534 68.056,68.812 68.155 C 68.089 68.254,67.498 68.437,67.498 68.562 C 67.498 68.686,67.055 68.869,66.513 68.969 C 65.972 69.068,65.469 69.228,65.397 69.323 C 65.229 69.544,63.419 70.389,63.125 70.383 C 62.855 70.378,60.067 71.765,59.882 71.996 C 59.810 72.086,59.366 72.243,58.897 72.345 C 58.427 72.447,58.043 72.639,58.043 72.772 C 58.043 72.905,57.866 73.014,57.649 73.014 C 57.433 73.014,57.255 73.119,57.255 73.248 C 57.255 73.377,56.960 73.556,56.599 73.647 C 56.238 73.738,55.942 73.918,55.942 74.048 C 55.942 74.179,55.588 74.363,55.154 74.458 C 54.721 74.553,54.366 74.726,54.366 74.843 C 54.366 74.959,54.160 75.123,53.907 75.208 C 53.293 75.414,52.494 75.939,52.006 76.456 C 51.788 76.688,51.343 76.962,51.018 77.065 C 50.693 77.167,50.427 77.349,50.427 77.468 C 50.427 77.587,50.131 77.759,49.770 77.849 C 49.409 77.940,49.114 78.130,49.114 78.272 C 49.114 78.413,48.936 78.529,48.720 78.529 C 48.503 78.529,48.326 78.639,48.326 78.774 C 48.326 78.909,48.067 79.101,47.751 79.201 C 47.436 79.302,46.801 79.782,46.342 80.270 C 45.882 80.757,45.392 81.156,45.252 81.156 C 45.112 81.156,44.682 81.510,44.296 81.944 C 43.910 82.377,43.476 82.731,43.331 82.731 C 42.963 82.731,33.880 91.824,33.880 92.193 C 33.880 92.358,33.467 92.860,32.961 93.308 C 32.456 93.755,32.042 94.271,32.042 94.454 C 32.042 94.637,31.883 94.881,31.689 94.997 C 31.495 95.112,31.114 95.561,30.842 95.995 C 30.570 96.428,30.197 96.877,30.013 96.993 C 29.829 97.108,29.678 97.369,29.678 97.572 C 29.678 97.775,29.412 98.230,29.087 98.584 C 28.141 99.614,27.915 99.939,27.723 100.545 C 27.623 100.859,27.432 101.116,27.297 101.116 C 27.162 101.116,27.052 101.293,27.052 101.510 C 27.052 101.727,26.946 101.904,26.818 101.904 C 26.689 101.904,26.509 102.200,26.419 102.561 C 26.328 102.922,26.138 103.217,25.996 103.217 C 25.855 103.217,25.739 103.395,25.739 103.611 C 25.739 103.828,25.634 104.005,25.505 104.005 C 25.377 104.005,25.196 104.407,25.104 104.899 C 25.012 105.391,24.762 105.860,24.550 105.941 C 24.337 106.023,24.163 106.330,24.163 106.623 C 24.163 106.917,24.045 107.157,23.900 107.157 C 23.756 107.157,23.638 107.334,23.638 107.551 C 23.638 107.768,23.529 107.945,23.396 107.945 C 23.263 107.945,23.076 108.299,22.981 108.733 C 22.886 109.166,22.699 109.521,22.566 109.521 C 22.433 109.521,22.324 109.757,22.324 110.046 C 22.324 110.335,22.208 110.571,22.065 110.571 C 21.922 110.571,21.730 111.044,21.637 111.622 C 21.545 112.200,21.376 112.672,21.261 112.672 C 21.147 112.672,20.975 113.027,20.880 113.460 C 20.785 113.894,20.627 114.248,20.529 114.248 C 20.311 114.248,19.792 115.420,19.541 116.481 C 19.438 116.914,19.283 117.328,19.196 117.400 C 18.953 117.600,18.119 120.097,18.121 120.617 C 18.122 120.870,18.015 121.077,17.884 121.077 C 17.753 121.077,17.565 121.668,17.466 122.390 C 17.366 123.112,17.178 123.703,17.047 123.703 C 16.916 123.703,16.809 124.058,16.809 124.491 C 16.809 124.924,16.697 125.279,16.559 125.279 C 16.422 125.279,16.230 125.988,16.131 126.855 C 16.033 127.722,15.857 128.431,15.740 128.431 C 15.623 128.431,15.446 129.258,15.346 130.269 C 15.247 131.280,15.062 132.108,14.937 132.108 C 14.811 132.108,14.708 132.580,14.708 133.158 C 14.708 133.736,14.599 134.209,14.466 134.209 C 14.333 134.209,14.141 135.391,14.038 136.835 C 13.936 138.280,13.749 139.462,13.623 139.462 C 13.498 139.462,13.395 140.088,13.395 140.854 C 13.395 141.619,13.247 142.393,13.066 142.574 C 12.588 143.052,12.588 172.378,13.066 172.856 C 13.259 173.049,13.395 173.866,13.395 174.839 C 13.395 175.749,13.499 176.494,13.626 176.494 C 13.754 176.494,13.941 177.498,14.044 178.725 C 14.146 179.953,14.337 181.023,14.469 181.104 C 14.600 181.186,14.708 181.718,14.708 182.287 C 14.708 182.857,14.811 183.322,14.937 183.322 C 15.062 183.322,15.247 184.150,15.346 185.161 C 15.446 186.172,15.622 186.999,15.738 186.999 C 15.853 186.999,16.020 187.611,16.109 188.358 C 16.197 189.105,16.391 189.838,16.539 189.986 C 16.688 190.135,16.809 190.587,16.809 190.991 C 16.809 191.396,16.916 191.727,17.047 191.727 C 17.178 191.727,17.366 192.318,17.466 193.040 C 17.565 193.762,17.753 194.353,17.884 194.353 C 18.015 194.353,18.122 194.626,18.122 194.960 C 18.122 195.293,18.296 195.795,18.508 196.076 C 18.720 196.356,18.897 196.852,18.902 197.177 C 18.906 197.502,19.013 197.768,19.139 197.768 C 19.265 197.768,19.444 198.240,19.536 198.818 C 19.629 199.396,19.821 199.869,19.964 199.869 C 20.106 199.869,20.223 200.046,20.223 200.263 C 20.223 200.479,20.326 200.657,20.452 200.657 C 20.578 200.657,20.757 201.129,20.849 201.707 C 20.942 202.285,21.134 202.758,21.277 202.758 C 21.420 202.758,21.536 202.875,21.536 203.019 C 21.536 203.442,22.432 205.384,22.628 205.384 C 22.727 205.384,22.886 205.739,22.981 206.172 C 23.076 206.605,23.263 206.960,23.396 206.960 C 23.529 206.960,23.638 207.196,23.638 207.485 C 23.638 207.774,23.746 208.011,23.879 208.011 C 24.012 208.011,24.199 208.365,24.294 208.798 C 24.389 209.232,24.574 209.586,24.704 209.586 C 24.834 209.586,25.015 209.882,25.106 210.243 C 25.196 210.604,25.376 210.900,25.505 210.900 C 25.633 210.900,25.739 211.077,25.739 211.293 C 25.739 211.510,25.855 211.687,25.996 211.687 C 26.138 211.687,26.328 211.983,26.419 212.344 C 26.509 212.705,26.689 213.001,26.818 213.001 C 26.946 213.001,27.052 213.178,27.052 213.395 C 27.052 213.611,27.162 213.789,27.297 213.789 C 27.432 213.789,27.624 214.049,27.725 214.367 C 27.826 214.686,28.071 215.108,28.268 215.305 C 28.466 215.503,28.628 215.805,28.628 215.977 C 28.628 216.150,28.923 216.512,29.284 216.783 C 29.645 217.055,29.941 217.409,29.941 217.571 C 29.941 217.732,30.236 218.184,30.598 218.573 C 30.959 218.962,31.254 219.355,31.254 219.444 C 31.254 219.534,31.727 220.076,32.305 220.648 C 32.882 221.220,33.355 221.793,33.355 221.922 C 33.355 222.241,40.699 229.547,41.020 229.547 C 41.160 229.547,41.716 230.020,42.255 230.598 C 42.794 231.175,43.427 231.648,43.661 231.648 C 43.896 231.648,44.163 231.884,44.255 232.173 C 44.346 232.461,44.686 232.764,45.010 232.845 C 45.333 232.926,45.815 233.281,46.080 233.634 C 46.344 233.986,46.768 234.274,47.021 234.274 C 47.274 234.274,47.550 234.452,47.633 234.668 C 47.716 234.885,48.016 235.062,48.300 235.062 C 48.585 235.062,48.890 235.297,48.982 235.588 C 49.074 235.877,49.310 236.113,49.506 236.113 C 49.703 236.113,50.020 236.261,50.211 236.442 C 50.402 236.623,51.001 237.004,51.543 237.290 C 52.085 237.575,52.528 237.894,52.528 237.999 C 52.528 238.104,52.942 238.268,53.447 238.363 C 53.953 238.458,54.366 238.640,54.366 238.769 C 54.366 238.897,54.544 239.002,54.760 239.002 C 54.977 239.002,55.154 239.111,55.154 239.244 C 55.154 239.377,55.509 239.563,55.942 239.659 C 56.376 239.754,56.730 239.940,56.730 240.073 C 56.730 240.206,56.967 240.315,57.255 240.315 C 57.544 240.315,57.781 240.424,57.781 240.557 C 57.781 240.690,58.135 240.877,58.569 240.972 C 59.002 241.067,59.357 241.248,59.357 241.375 C 59.357 241.501,59.770 241.682,60.276 241.777 C 60.781 241.872,61.195 242.054,61.195 242.183 C 61.195 242.311,61.431 242.416,61.720 242.416 C 62.009 242.416,62.246 242.524,62.246 242.656 C 62.246 242.788,62.718 242.975,63.296 243.073 C 63.874 243.171,64.347 243.351,64.347 243.474 C 64.347 243.597,64.879 243.777,65.529 243.875 C 66.179 243.972,66.710 244.157,66.710 244.285 C 66.710 244.413,66.940 244.517,67.220 244.517 C 67.501 244.517,67.799 244.629,67.883 244.765 C 67.967 244.901,68.565 245.092,69.212 245.189 C 69.858 245.286,70.387 245.470,70.387 245.598 C 70.387 245.726,70.801 245.831,71.307 245.831 C 71.812 245.831,72.226 245.940,72.226 246.074 C 72.226 246.208,72.876 246.399,73.670 246.499 C 74.465 246.598,75.115 246.770,75.115 246.881 C 75.115 246.991,76.001 247.165,77.085 247.267 C 78.168 247.368,79.054 247.559,79.054 247.691 C 79.054 247.824,79.576 247.932,80.214 247.932 C 80.852 247.932,81.414 248.042,81.462 248.178 C 81.510 248.313,82.879 248.507,84.504 248.609 C 86.129 248.711,87.459 248.896,87.459 249.020 C 87.459 249.144,88.397 249.245,89.545 249.245 C 90.692 249.245,91.703 249.363,91.793 249.508 C 92.015 249.867,111.006 249.867,111.228 249.508 C 111.317 249.363,112.329 249.245,113.476 249.245 C 114.623 249.245,115.561 249.144,115.561 249.021 C 115.561 248.898,116.832 248.715,118.384 248.615 C 119.937 248.514,121.319 248.319,121.457 248.182 C 121.595 248.044,122.215 247.932,122.837 247.932 C 123.458 247.932,123.966 247.827,123.966 247.700 C 123.966 247.572,124.852 247.385,125.936 247.284 C 127.019 247.182,127.905 247.006,127.905 246.893 C 127.905 246.779,128.733 246.605,129.744 246.505 C 130.755 246.406,131.582 246.213,131.582 246.077 C 131.582 245.942,131.878 245.831,132.239 245.831 C 132.600 245.831,132.896 245.728,132.896 245.602 C 132.896 245.476,133.605 245.293,134.471 245.195 C 135.338 245.097,136.047 244.904,136.047 244.767 C 136.047 244.630,136.402 244.517,136.835 244.517 C 137.269 244.517,137.623 244.410,137.623 244.279 C 137.623 244.149,138.214 243.960,138.936 243.861 C 139.659 243.761,140.250 243.588,140.250 243.476 C 140.250 243.363,140.727 243.195,141.312 243.102 C 142.294 242.944,143.350 242.506,143.664 242.126 C 143.736 242.038,144.268 241.880,144.845 241.773 C 145.423 241.667,145.954 241.502,146.027 241.406 C 146.100 241.310,146.838 241.007,147.669 240.731 C 148.500 240.455,149.179 240.132,149.179 240.013 C 149.179 239.894,149.652 239.720,150.230 239.628 C 150.808 239.536,151.280 239.357,151.280 239.231 C 151.280 239.105,151.458 239.002,151.674 239.002 C 151.891 239.002,152.068 238.893,152.068 238.760 C 152.068 238.627,152.452 238.435,152.922 238.333 C 153.391 238.231,153.835 238.074,153.907 237.984 C 153.979 237.894,154.481 237.595,155.023 237.319 C 155.565 237.044,156.008 236.719,156.008 236.597 C 156.008 236.475,156.163 236.376,156.352 236.376 C 156.872 236.376,158.897 234.072,158.897 233.480 C 158.897 233.194,159.014 232.961,159.156 232.961 C 159.299 232.961,159.492 232.489,159.584 231.911 C 159.676 231.333,159.855 230.860,159.981 230.860 C 160.107 230.860,160.210 230.217,160.210 229.431 C 160.210 228.645,160.328 227.929,160.473 227.840 C 160.646 227.733,160.735 215.498,160.735 191.989 C 160.735 168.481,160.646 156.246,160.473 156.139 C 160.328 156.050,160.210 155.393,160.210 154.679 C 160.210 153.965,160.107 153.381,159.981 153.381 C 159.855 153.381,159.676 152.909,159.584 152.331 C 159.492 151.753,159.299 151.280,159.156 151.280 C 159.014 151.280,158.896 151.133,158.895 150.952 C 158.892 150.540,156.727 148.391,156.314 148.391 C 156.146 148.391,156.008 148.284,156.008 148.153 C 156.008 148.022,155.417 147.834,154.695 147.735 C 153.972 147.635,153.381 147.447,153.381 147.316 C 153.381 147.175,140.948 147.078,122.915 147.078 C 102.780 147.078,92.449 147.167,92.449 147.341 C 92.449 147.485,92.231 147.603,91.965 147.603 C 91.319 147.603,90.085 148.687,90.085 149.253 C 90.085 149.501,89.967 149.705,89.823 149.705 C 89.678 149.705,89.560 149.990,89.560 150.339 C 89.560 150.688,89.412 151.023,89.232 151.083 C 88.982 151.167,88.903 152.635,88.903 157.237 C 88.903 163.235,88.958 163.689,89.855 165.200 C 89.983 165.417,90.170 165.772,90.269 165.988 C 90.517 166.529,91.045 167.039,91.358 167.039 C 91.501 167.039,91.667 167.186,91.727 167.367 C 91.813 167.625,96.491 167.711,113.680 167.768 L 135.525 167.841 135.458 193.885 L 135.391 219.929 134.077 220.597 C 133.355 220.965,132.726 221.352,132.680 221.458 C 132.633 221.564,132.190 221.727,131.695 221.820 C 131.200 221.913,130.794 222.094,130.794 222.222 C 130.794 222.351,130.529 222.459,130.204 222.464 C 129.879 222.469,129.383 222.646,129.103 222.858 C 128.822 223.070,128.320 223.244,127.987 223.244 C 127.653 223.244,127.380 223.360,127.380 223.503 C 127.380 223.646,126.907 223.838,126.330 223.931 C 125.752 224.023,125.279 224.202,125.279 224.328 C 125.279 224.454,124.984 224.557,124.622 224.557 C 124.261 224.557,123.966 224.661,123.966 224.789 C 123.966 224.917,123.316 225.103,122.521 225.202 C 121.727 225.301,121.077 225.485,121.077 225.610 C 121.077 225.736,120.247 225.920,119.233 226.020 C 118.218 226.120,117.325 226.304,117.247 226.430 C 117.170 226.555,116.640 226.658,116.071 226.658 C 115.502 226.658,115.036 226.764,115.036 226.895 C 115.036 227.025,113.647 227.207,111.950 227.300 C 110.253 227.393,108.659 227.582,108.408 227.720 C 107.813 228.047,97.308 228.047,96.713 227.720 C 96.463 227.582,94.869 227.393,93.171 227.300 C 91.474 227.207,90.085 227.025,90.085 226.895 C 90.085 226.764,89.620 226.658,89.050 226.658 C 88.481 226.658,87.949 226.551,87.869 226.421 C 87.788 226.291,87.013 226.102,86.146 226.001 C 85.279 225.901,84.512 225.726,84.442 225.612 C 84.372 225.499,83.663 225.325,82.866 225.225 C 82.070 225.126,81.418 224.935,81.418 224.801 C 81.418 224.666,81.123 224.557,80.762 224.557 C 80.401 224.557,80.105 224.452,80.105 224.324 C 80.105 224.196,79.573 224.011,78.923 223.914 C 78.273 223.816,77.741 223.626,77.741 223.490 C 77.741 223.355,77.578 223.244,77.377 223.244 C 77.177 223.244,76.675 223.067,76.261 222.851 C 75.847 222.635,75.302 222.458,75.049 222.457 C 74.796 222.456,74.590 222.347,74.590 222.214 C 74.590 222.081,74.235 221.894,73.802 221.799 C 73.368 221.704,73.014 221.545,73.014 221.446 C 73.014 221.251,71.072 220.355,70.648 220.355 C 70.505 220.355,70.387 220.249,70.387 220.120 C 70.387 219.992,70.092 219.812,69.731 219.721 C 69.370 219.631,69.074 219.441,69.074 219.299 C 69.074 219.157,68.897 219.041,68.680 219.041 C 68.464 219.041,68.286 218.931,68.286 218.796 C 68.286 218.662,68.020 218.468,67.695 218.365 C 67.370 218.262,66.913 217.959,66.680 217.691 C 66.446 217.422,66.117 217.203,65.949 217.203 C 65.781 217.203,65.575 217.026,65.492 216.809 C 65.409 216.592,65.134 216.415,64.881 216.415 C 64.627 216.415,64.198 216.120,63.927 215.758 C 63.656 215.397,63.294 215.102,63.123 215.102 C 62.953 215.102,62.301 214.572,61.676 213.924 C 61.050 213.277,60.447 212.745,60.336 212.742 C 60.053 212.736,56.467 209.137,56.467 208.859 C 56.467 208.735,56.083 208.286,55.612 207.862 C 55.142 207.438,54.532 206.737,54.256 206.303 C 53.981 205.870,53.480 205.255,53.142 204.937 C 52.804 204.619,52.528 204.235,52.528 204.083 C 52.528 203.932,52.412 203.808,52.270 203.808 C 52.129 203.808,51.938 203.513,51.848 203.152 C 51.757 202.791,51.605 202.495,51.509 202.495 C 51.413 202.495,51.111 202.081,50.839 201.576 C 50.567 201.070,50.244 200.657,50.123 200.657 C 50.001 200.657,49.902 200.488,49.902 200.281 C 49.902 200.075,49.753 199.750,49.573 199.559 C 49.392 199.368,49.008 198.741,48.719 198.166 C 48.430 197.590,48.047 196.961,47.866 196.768 C 47.685 196.575,47.538 196.248,47.538 196.042 C 47.538 195.835,47.420 195.666,47.275 195.666 C 47.131 195.666,47.012 195.489,47.012 195.272 C 47.012 195.056,46.907 194.879,46.779 194.879 C 46.651 194.879,46.468 194.465,46.373 193.959 C 46.278 193.454,46.088 193.040,45.950 193.040 C 45.812 193.040,45.699 192.813,45.699 192.536 C 45.699 192.060,44.965 190.436,44.621 190.151 C 44.533 190.079,44.380 189.576,44.281 189.035 C 44.181 188.493,43.987 188.050,43.849 188.050 C 43.711 188.050,43.598 187.754,43.598 187.393 C 43.598 187.032,43.491 186.737,43.360 186.737 C 43.229 186.737,43.041 186.146,42.942 185.424 C 42.842 184.701,42.665 184.110,42.548 184.110 C 42.430 184.110,42.253 183.520,42.154 182.797 C 42.054 182.075,41.866 181.418,41.735 181.337 C 41.604 181.256,41.497 180.902,41.497 180.549 C 41.497 180.197,41.393 179.908,41.265 179.908 C 41.138 179.908,40.950 179.022,40.849 177.938 C 40.747 176.855,40.556 175.968,40.424 175.968 C 40.292 175.968,40.184 175.446,40.184 174.808 C 40.184 174.170,40.075 173.609,39.941 173.561 C 39.808 173.513,39.614 172.173,39.510 170.584 C 39.405 168.963,39.194 167.613,39.031 167.508 C 38.825 167.376,38.739 164.076,38.739 156.271 C 38.739 148.466,38.825 145.165,39.031 145.033 C 39.194 144.928,39.405 143.578,39.510 141.957 C 39.614 140.368,39.808 139.028,39.941 138.980 C 40.075 138.932,40.184 138.430,40.184 137.864 C 40.184 137.298,40.288 136.835,40.416 136.835 C 40.543 136.835,40.730 135.949,40.832 134.865 C 40.934 133.782,41.125 132.896,41.257 132.896 C 41.389 132.896,41.497 132.541,41.497 132.108 C 41.497 131.674,41.607 131.320,41.741 131.320 C 41.875 131.320,42.066 130.670,42.165 129.875 C 42.264 129.081,42.439 128.431,42.553 128.431 C 42.667 128.431,42.842 127.840,42.942 127.118 C 43.041 126.395,43.200 125.804,43.296 125.804 C 43.541 125.804,44.078 124.526,44.290 123.439 C 44.388 122.934,44.545 122.462,44.638 122.390 C 44.879 122.203,45.699 120.397,45.699 120.052 C 45.699 119.893,45.802 119.764,45.928 119.764 C 46.054 119.764,46.233 119.291,46.325 118.713 C 46.418 118.135,46.610 117.663,46.753 117.663 C 46.896 117.663,47.012 117.485,47.012 117.269 C 47.012 117.052,47.131 116.875,47.275 116.875 C 47.420 116.875,47.538 116.706,47.538 116.499 C 47.538 116.293,47.685 115.963,47.866 115.765 C 48.339 115.248,49.114 113.740,49.114 113.336 C 49.114 113.146,49.291 112.923,49.508 112.840 C 49.724 112.757,49.902 112.513,49.902 112.299 C 49.902 112.084,50.167 111.619,50.492 111.265 C 51.438 110.235,51.665 109.910,51.857 109.304 C 51.957 108.990,52.148 108.733,52.283 108.733 C 52.418 108.733,52.528 108.599,52.528 108.435 C 52.528 108.271,52.823 107.863,53.185 107.528 C 53.546 107.193,53.841 106.796,53.841 106.644 C 53.841 106.493,54.314 105.896,54.892 105.318 C 55.469 104.741,55.942 104.204,55.942 104.125 C 55.942 103.924,56.399 103.414,57.995 101.839 C 58.763 101.080,59.532 100.308,59.703 100.123 C 60.936 98.786,61.526 98.227,61.704 98.227 C 61.817 98.227,62.348 97.814,62.884 97.308 C 63.420 96.802,63.918 96.389,63.990 96.389 C 64.062 96.389,64.286 96.241,64.488 96.060 C 65.206 95.416,66.306 94.669,66.973 94.371 C 67.190 94.275,67.462 94.039,67.577 93.848 C 67.693 93.656,67.907 93.500,68.054 93.500 C 68.201 93.500,68.709 93.204,69.182 92.843 C 69.656 92.482,70.239 92.186,70.478 92.186 C 70.717 92.186,70.913 92.068,70.913 91.923 C 70.913 91.778,71.385 91.455,71.963 91.204 C 72.541 90.954,73.014 90.668,73.014 90.570 C 73.014 90.471,73.368 90.312,73.802 90.217 C 74.235 90.121,74.590 89.935,74.590 89.802 C 74.590 89.669,74.778 89.560,75.009 89.560 C 75.239 89.560,75.742 89.393,76.125 89.190 C 77.373 88.526,78.731 87.984,79.144 87.984 C 79.367 87.984,79.622 87.866,79.711 87.722 C 79.800 87.577,80.162 87.459,80.515 87.459 C 80.867 87.459,81.156 87.348,81.156 87.212 C 81.156 87.077,81.687 86.886,82.337 86.789 C 82.988 86.691,83.519 86.515,83.519 86.397 C 83.519 86.280,84.171 86.102,84.967 86.003 C 85.764 85.903,86.480 85.717,86.559 85.590 C 86.638 85.462,87.158 85.358,87.715 85.358 C 88.272 85.358,88.768 85.246,88.816 85.110 C 88.864 84.974,90.115 84.780,91.596 84.679 C 93.076 84.578,94.288 84.394,94.288 84.270 C 94.288 84.146,95.581 84.045,97.161 84.045 C 98.794 84.045,100.105 83.931,100.197 83.782 C 100.286 83.638,101.350 83.519,102.561 83.519 C 103.772 83.519,104.835 83.638,104.924 83.782 C 105.020 83.936,106.547 84.045,108.617 84.045 C 110.559 84.045,112.147 84.146,112.147 84.270 C 112.147 84.394,113.477 84.579,115.102 84.680 C 116.727 84.782,118.096 84.976,118.144 85.112 C 118.192 85.247,118.694 85.358,119.260 85.358 C 119.826 85.358,120.289 85.467,120.289 85.600 C 120.289 85.733,121.057 85.924,121.996 86.024 C 122.935 86.125,123.703 86.303,123.703 86.420 C 123.703 86.537,124.353 86.714,125.148 86.814 C 125.942 86.913,126.592 87.099,126.592 87.227 C 126.592 87.354,126.888 87.459,127.249 87.459 C 127.610 87.459,127.905 87.566,127.905 87.697 C 127.905 87.828,128.496 88.016,129.219 88.116 C 129.941 88.215,130.532 88.403,130.532 88.534 C 130.532 88.665,130.696 88.772,130.896 88.772 C 131.096 88.772,131.598 88.949,132.012 89.165 C 132.426 89.380,133.030 89.558,133.355 89.558 C 133.680 89.559,133.946 89.677,133.946 89.820 C 133.946 89.962,134.419 90.155,134.997 90.247 C 135.575 90.340,136.047 90.518,136.047 90.644 C 136.047 90.770,136.225 90.873,136.441 90.873 C 136.658 90.873,136.835 90.976,136.835 91.102 C 136.835 91.228,137.308 91.407,137.886 91.499 C 138.464 91.592,138.936 91.756,138.936 91.865 C 138.936 92.074,140.857 92.974,141.302 92.974 C 141.445 92.974,141.563 93.083,141.563 93.216 C 141.563 93.349,141.917 93.536,142.351 93.631 C 142.784 93.726,143.139 93.899,143.139 94.015 C 143.139 94.131,143.345 94.296,143.598 94.381 C 144.089 94.545,145.022 95.104,145.240 95.363 C 145.312 95.449,145.720 95.606,146.147 95.710 C 146.574 95.815,147.076 96.119,147.264 96.386 C 147.451 96.654,147.936 96.945,148.341 97.034 C 148.746 97.123,149.244 97.428,149.449 97.712 C 149.653 97.995,149.975 98.227,150.165 98.227 C 150.354 98.227,150.577 98.404,150.660 98.621 C 150.743 98.838,151.039 99.015,151.317 99.015 C 151.595 99.015,151.890 99.192,151.973 99.409 C 152.056 99.626,152.348 99.803,152.622 99.803 C 152.895 99.803,153.119 99.920,153.119 100.063 C 153.119 100.205,153.592 100.398,154.169 100.490 C 154.747 100.582,155.220 100.761,155.220 100.887 C 155.220 101.243,156.658 101.157,157.435 100.753 C 158.537 100.182,159.670 98.939,159.678 98.293 C 159.682 97.968,159.803 97.702,159.947 97.702 C 160.092 97.702,160.210 97.298,160.210 96.805 C 160.210 96.311,160.346 95.862,160.513 95.806 C 160.729 95.734,160.815 94.061,160.815 89.954 C 160.815 85.847,160.729 84.174,160.513 84.102 C 160.346 84.046,160.210 83.656,160.210 83.235 C 160.210 82.814,160.092 82.469,159.947 82.469 C 159.803 82.469,159.685 82.182,159.685 81.831 C 159.685 81.480,159.508 81.016,159.291 80.799 C 159.074 80.582,158.897 80.298,158.897 80.167 C 158.897 80.036,158.572 79.619,158.175 79.240 C 157.302 78.408,156.908 78.018,156.330 77.413 C 156.089 77.160,155.766 76.953,155.614 76.953 C 155.461 76.953,155.166 76.717,154.957 76.428 C 154.749 76.139,154.436 75.903,154.262 75.903 C 154.087 75.903,153.788 75.755,153.597 75.574 C 153.406 75.393,152.807 75.012,152.265 74.726 C 151.724 74.441,151.280 74.122,151.280 74.017 C 151.280 73.911,150.867 73.748,150.361 73.653 C 149.856 73.558,149.442 73.376,149.442 73.247 C 149.442 73.119,149.265 73.014,149.048 73.014 C 148.831 73.014,148.654 72.908,148.654 72.780 C 148.654 72.651,148.359 72.471,147.997 72.381 C 147.636 72.290,147.341 72.100,147.341 71.958 C 147.341 71.817,147.111 71.701,146.831 71.701 C 146.551 71.701,146.254 71.591,146.171 71.458 C 146.089 71.325,145.668 71.138,145.237 71.043 C 144.805 70.949,144.452 70.764,144.452 70.632 C 144.452 70.501,143.979 70.318,143.401 70.226 C 142.823 70.133,142.351 69.955,142.351 69.829 C 142.351 69.703,142.055 69.599,141.694 69.599 C 141.333 69.599,141.037 69.483,141.037 69.340 C 141.037 69.197,140.565 69.005,139.987 68.912 C 139.409 68.820,138.936 68.652,138.936 68.540 C 138.936 68.428,138.345 68.254,137.623 68.155 C 136.901 68.056,136.310 67.867,136.310 67.736 C 136.310 67.605,136.014 67.498,135.653 67.498 C 135.292 67.498,134.997 67.394,134.997 67.266 C 134.997 67.138,134.347 66.952,133.552 66.853 C 132.758 66.754,132.108 66.563,132.108 66.429 C 132.108 66.295,131.760 66.185,131.335 66.185 C 130.910 66.185,130.497 66.079,130.416 65.948 C 130.336 65.818,129.561 65.629,128.694 65.529 C 127.827 65.428,127.118 65.253,127.118 65.140 C 127.118 65.026,126.231 64.851,125.148 64.749 C 124.064 64.648,123.178 64.456,123.178 64.324 C 123.178 64.192,122.597 64.084,121.887 64.084 C 121.176 64.084,120.556 63.971,120.508 63.833 C 120.460 63.695,119.150 63.500,117.597 63.400 C 116.044 63.300,114.773 63.118,114.773 62.995 C 114.773 62.872,113.592 62.771,112.147 62.771 C 110.571 62.771,109.521 62.666,109.521 62.508 C 109.521 62.340,107.206 62.246,103.102 62.246 C 99.105 62.246,96.621 62.345,96.520 62.508 M338.739 68.775 C 338.342 69.180,338.017 69.633,338.017 69.782 C 338.017 69.930,337.722 70.273,337.360 70.544 C 336.999 70.815,336.704 71.188,336.704 71.372 C 336.704 71.555,336.467 71.908,336.179 72.155 C 335.890 72.403,335.653 72.807,335.653 73.054 C 335.653 73.302,335.417 73.579,335.129 73.670 C 334.840 73.762,334.537 74.102,334.456 74.425 C 334.375 74.749,334.020 75.231,333.668 75.495 C 333.315 75.760,333.027 76.143,333.027 76.346 C 333.027 76.549,332.731 76.990,332.370 77.324 C 332.009 77.659,331.714 78.024,331.714 78.135 C 331.714 78.247,331.418 78.611,331.057 78.946 C 330.696 79.281,330.401 79.684,330.401 79.842 C 330.401 80.001,330.105 80.404,329.744 80.739 C 329.383 81.073,329.087 81.464,329.087 81.606 C 329.087 81.749,328.762 82.223,328.365 82.659 C 327.344 83.781,326.724 84.636,326.724 84.922 C 326.724 85.056,326.428 85.440,326.067 85.775 C 325.706 86.109,325.410 86.586,325.410 86.834 C 325.410 87.081,325.336 87.209,325.244 87.118 C 325.051 86.924,324.097 88.061,324.097 88.485 C 324.097 88.643,323.981 88.772,323.840 88.772 C 323.698 88.772,323.509 89.063,323.419 89.419 C 323.330 89.775,323.032 90.138,322.758 90.225 C 322.483 90.312,322.259 90.540,322.259 90.732 C 322.259 90.924,321.904 91.460,321.471 91.924 C 321.037 92.388,320.683 92.879,320.683 93.015 C 320.683 93.151,320.387 93.536,320.026 93.871 C 319.665 94.205,319.370 94.563,319.370 94.665 C 319.370 94.767,319.222 95.015,319.041 95.216 C 318.278 96.067,318.056 96.380,318.056 96.603 C 318.056 96.734,317.761 97.062,317.400 97.333 C 317.039 97.605,316.743 97.977,316.743 98.160 C 316.743 98.343,316.448 98.750,316.087 99.064 C 315.726 99.378,315.430 99.765,315.430 99.923 C 315.430 100.082,315.194 100.414,314.905 100.661 C 314.616 100.909,314.380 101.261,314.380 101.445 C 314.380 101.629,314.084 102.001,313.723 102.273 C 313.362 102.544,313.066 102.939,313.066 103.151 C 313.066 103.362,312.771 103.768,312.410 104.052 C 312.049 104.336,311.753 104.694,311.753 104.848 C 311.753 105.001,311.458 105.401,311.097 105.735 C 310.735 106.070,310.440 106.484,310.440 106.655 C 310.440 106.826,310.144 107.239,309.783 107.574 C 309.422 107.909,309.127 108.263,309.127 108.362 C 309.127 108.460,308.850 108.798,308.511 109.112 C 308.173 109.425,307.813 110.014,307.711 110.420 C 307.609 110.826,307.458 111.091,307.376 111.009 C 307.166 110.799,306.604 111.406,306.394 112.069 C 306.297 112.374,306.045 112.690,305.834 112.771 C 305.623 112.852,305.450 113.151,305.450 113.434 C 305.450 113.719,305.215 114.025,304.925 114.117 C 304.637 114.208,304.334 114.548,304.253 114.872 C 304.171 115.196,303.817 115.677,303.464 115.942 C 303.112 116.206,302.823 116.630,302.823 116.883 C 302.823 117.136,302.646 117.412,302.429 117.495 C 302.213 117.578,302.035 117.773,302.035 117.929 C 302.035 118.084,301.740 118.507,301.379 118.868 C 301.018 119.229,300.722 119.650,300.722 119.803 C 300.722 119.957,300.427 120.314,300.066 120.598 C 299.705 120.883,299.409 121.233,299.409 121.377 C 299.409 121.522,299.261 121.804,299.081 122.006 C 298.373 122.795,298.096 123.162,298.096 123.311 C 298.096 123.396,297.800 123.739,297.439 124.074 C 297.078 124.409,296.783 124.789,296.783 124.918 C 296.783 125.047,296.487 125.472,296.126 125.861 C 295.765 126.251,295.469 126.676,295.469 126.807 C 295.469 126.937,295.174 127.266,294.813 127.537 C 294.452 127.808,294.156 128.161,294.156 128.322 C 294.156 128.482,293.920 128.886,293.631 129.219 C 293.342 129.552,293.106 129.976,293.106 130.160 C 293.106 130.345,292.875 130.570,292.594 130.659 C 292.312 130.748,292.003 131.071,291.906 131.377 C 291.809 131.682,291.448 132.213,291.104 132.557 C 290.761 132.901,290.479 133.301,290.479 133.445 C 290.479 133.590,290.184 133.982,289.823 134.317 C 289.462 134.652,289.166 135.006,289.166 135.104 C 289.166 135.202,288.871 135.601,288.510 135.990 C 288.148 136.380,287.853 136.804,287.853 136.934 C 287.853 137.063,287.557 137.443,287.196 137.777 C 286.835 138.112,286.540 138.511,286.540 138.663 C 286.540 138.815,286.244 139.197,285.883 139.511 C 285.522 139.825,285.227 140.241,285.227 140.436 C 285.227 140.632,285.058 140.856,284.851 140.935 C 284.328 141.136,283.966 142.352,284.195 143.139 C 284.300 143.500,284.398 144.238,284.412 144.780 C 284.427 145.322,284.544 145.765,284.674 145.765 C 284.803 145.765,284.993 146.710,285.095 147.866 C 285.198 149.022,285.387 149.967,285.517 149.967 C 285.646 149.967,285.752 150.381,285.752 150.886 C 285.752 151.392,285.853 151.806,285.977 151.806 C 286.101 151.806,286.279 152.544,286.374 153.447 C 286.468 154.350,286.662 155.128,286.805 155.176 C 286.948 155.224,287.065 155.405,287.065 155.578 C 287.065 156.028,288.779 157.584,289.275 157.584 C 289.504 157.584,289.691 157.702,289.691 157.846 C 289.691 157.991,289.869 158.109,290.085 158.109 C 290.302 158.109,290.479 158.227,290.479 158.372 C 290.479 158.545,298.796 158.634,314.905 158.634 L 339.330 158.634 339.330 202.889 L 339.330 247.144 350.361 247.144 L 361.392 247.144 361.392 202.889 L 361.392 158.634 366.907 158.634 C 370.409 158.634,372.423 158.538,372.423 158.372 C 372.423 158.227,372.600 158.109,372.817 158.109 C 374.617 158.109,375.049 156.183,375.049 148.155 L 375.049 141.037 368.221 141.037 L 361.392 141.037 361.392 104.531 L 361.392 68.024 350.427 68.031 L 339.462 68.038 338.739 68.775 M339.330 120.026 L 339.330 141.037 324.032 141.029 C 313.510 141.024,308.876 140.938,309.192 140.754 C 309.445 140.607,309.652 140.311,309.652 140.097 C 309.652 139.883,309.829 139.640,310.046 139.557 C 310.263 139.473,310.440 139.269,310.440 139.103 C 310.440 138.936,310.721 138.497,311.064 138.126 C 311.407 137.756,311.770 137.196,311.870 136.882 C 311.969 136.567,312.161 136.310,312.296 136.310 C 312.431 136.310,312.541 136.186,312.541 136.035 C 312.541 135.883,312.816 135.499,313.152 135.181 C 313.487 134.863,313.841 134.425,313.938 134.209 C 314.254 133.499,314.763 132.778,315.364 132.188 C 315.689 131.869,315.955 131.478,315.955 131.320 C 315.955 131.162,316.234 130.772,316.575 130.454 C 316.917 130.136,317.279 129.609,317.381 129.284 C 317.483 128.959,317.677 128.693,317.812 128.693 C 317.946 128.693,318.056 128.559,318.056 128.395 C 318.056 128.231,318.329 127.844,318.662 127.536 C 318.995 127.227,319.349 126.800,319.448 126.586 C 319.768 125.899,320.514 124.808,321.142 124.107 C 321.323 123.905,321.471 123.627,321.471 123.487 C 321.471 123.348,321.648 123.166,321.865 123.083 C 322.081 123.000,322.259 122.745,322.259 122.517 C 322.259 122.289,322.554 121.828,322.915 121.494 C 323.276 121.159,323.572 120.751,323.572 120.587 C 323.572 120.423,323.688 120.289,323.830 120.289 C 323.971 120.289,324.156 120.016,324.239 119.683 C 324.323 119.349,324.680 118.860,325.032 118.595 C 325.385 118.331,325.673 118.005,325.673 117.871 C 325.673 117.632,326.797 116.032,327.446 115.346 C 327.626 115.155,327.774 114.876,327.774 114.727 C 327.774 114.577,328.070 114.223,328.431 113.939 C 328.792 113.655,329.087 113.253,329.087 113.047 C 329.087 112.841,329.198 112.672,329.332 112.672 C 329.467 112.672,329.658 112.416,329.758 112.104 C 329.857 111.791,330.220 111.254,330.563 110.910 C 330.907 110.566,331.188 110.141,331.188 109.966 C 331.188 109.791,331.429 109.497,331.724 109.313 C 332.018 109.129,332.200 108.882,332.127 108.764 C 332.054 108.646,332.286 108.296,332.642 107.986 C 332.998 107.676,333.290 107.271,333.290 107.085 C 333.290 106.900,333.526 106.577,333.815 106.369 C 334.104 106.161,334.340 105.857,334.340 105.693 C 334.340 105.530,334.665 105.033,335.062 104.590 C 336.218 103.300,336.441 102.994,336.441 102.701 C 336.441 102.550,336.733 102.173,337.089 101.863 C 337.445 101.553,337.677 101.203,337.604 101.085 C 337.531 100.967,337.712 100.720,338.007 100.536 C 338.301 100.352,338.542 100.014,338.542 99.784 C 338.542 99.325,338.772 99.015,339.111 99.015 C 339.232 99.015,339.330 108.470,339.330 120.026 M170.103 105.494 C 170.007 105.590,169.928 117.172,169.928 131.232 L 169.928 156.796 175.706 156.796 L 181.484 156.796 181.484 131.057 L 181.484 105.318 175.881 105.318 C 172.799 105.318,170.199 105.397,170.103 105.494 M185.581 106.303 C 185.680 106.845,185.863 107.328,185.986 107.376 C 186.110 107.424,186.211 107.631,186.211 107.835 C 186.211 108.040,186.319 108.207,186.449 108.207 C 186.580 108.207,186.629 108.431,186.558 108.703 C 186.487 108.976,186.557 109.278,186.714 109.375 C 186.871 109.472,186.999 109.781,186.999 110.061 C 186.999 110.342,187.107 110.571,187.239 110.571 C 187.371 110.571,187.558 111.044,187.656 111.622 C 187.754 112.200,187.941 112.672,188.073 112.672 C 188.205 112.672,188.313 112.909,188.313 113.198 C 188.313 113.487,188.418 113.723,188.546 113.723 C 188.674 113.723,188.856 114.132,188.950 114.631 C 189.043 115.131,189.292 115.869,189.503 116.273 C 189.713 116.676,189.886 117.165,189.887 117.359 C 189.888 117.554,190.108 118.026,190.377 118.410 C 190.646 118.793,190.947 119.550,191.046 120.092 C 191.145 120.634,191.338 121.077,191.476 121.077 C 191.614 121.077,191.727 121.372,191.727 121.733 C 191.727 122.095,191.844 122.390,191.986 122.390 C 192.129 122.390,192.322 122.863,192.414 123.441 C 192.506 124.018,192.672 124.491,192.783 124.491 C 192.893 124.491,193.075 124.816,193.187 125.213 C 193.299 125.611,193.417 125.995,193.448 126.067 C 193.479 126.139,193.591 126.464,193.697 126.789 C 193.803 127.114,193.994 127.380,194.121 127.380 C 194.249 127.380,194.353 127.628,194.353 127.931 C 194.353 128.235,194.540 128.914,194.769 129.442 C 194.998 129.969,195.352 130.789,195.557 131.263 C 195.762 131.737,195.929 132.299,195.929 132.511 C 195.929 132.722,196.034 132.896,196.162 132.896 C 196.291 132.896,196.476 133.324,196.574 133.847 C 196.744 134.749,197.184 135.759,197.533 136.047 C 197.620 136.120,197.773 136.622,197.873 137.163 C 197.973 137.705,198.142 138.148,198.250 138.148 C 198.358 138.148,198.668 138.798,198.938 139.593 C 199.208 140.387,199.513 141.037,199.615 141.037 C 199.718 141.037,199.877 141.510,199.970 142.088 C 200.062 142.666,200.254 143.139,200.397 143.139 C 200.540 143.139,200.657 143.434,200.657 143.795 C 200.657 144.156,200.773 144.452,200.916 144.452 C 201.059 144.452,201.251 144.924,201.344 145.502 C 201.436 146.080,201.604 146.553,201.718 146.553 C 201.831 146.553,202.003 147.026,202.101 147.603 C 202.199 148.181,202.386 148.654,202.518 148.654 C 202.650 148.654,202.758 148.890,202.758 149.179 C 202.758 149.468,202.866 149.705,202.997 149.705 C 203.129 149.705,203.317 150.177,203.414 150.755 C 203.512 151.333,203.700 151.806,203.831 151.806 C 203.963 151.806,204.071 152.101,204.071 152.462 C 204.071 152.823,204.188 153.119,204.330 153.119 C 204.473 153.119,204.666 153.592,204.758 154.169 C 204.850 154.747,205.020 155.220,205.134 155.220 C 205.249 155.220,205.420 155.575,205.515 156.008 L 205.688 156.796 211.031 156.796 L 216.373 156.796 216.546 156.008 C 216.641 155.575,216.828 155.220,216.961 155.220 C 217.094 155.220,217.203 154.924,217.203 154.563 C 217.203 154.202,217.320 153.907,217.462 153.907 C 217.605 153.907,217.798 153.434,217.890 152.856 C 217.982 152.278,218.147 151.806,218.256 151.806 C 218.451 151.806,218.824 150.922,218.885 150.314 C 218.903 150.144,219.004 149.917,219.110 149.811 C 219.217 149.704,219.304 149.400,219.304 149.135 C 219.304 148.871,219.412 148.654,219.544 148.654 C 219.675 148.654,219.863 148.181,219.961 147.603 C 220.058 147.026,220.246 146.553,220.378 146.553 C 220.509 146.553,220.617 146.257,220.617 145.896 C 220.617 145.535,220.734 145.240,220.877 145.240 C 221.019 145.240,221.212 144.767,221.304 144.189 C 221.397 143.611,221.546 143.139,221.637 143.139 C 221.838 143.139,222.362 141.959,222.601 140.972 C 222.697 140.575,222.866 140.250,222.976 140.250 C 223.086 140.250,223.252 139.777,223.344 139.199 C 223.437 138.621,223.629 138.148,223.772 138.148 C 223.915 138.148,224.032 137.853,224.032 137.492 C 224.032 137.131,224.148 136.835,224.291 136.835 C 224.434 136.835,224.626 136.362,224.719 135.785 C 224.811 135.207,224.966 134.734,225.064 134.734 C 225.161 134.734,225.458 134.114,225.723 133.355 C 225.989 132.597,226.308 131.864,226.432 131.727 C 226.556 131.590,226.658 131.312,226.658 131.110 C 226.658 130.701,227.452 128.899,227.723 128.693 C 227.818 128.621,227.977 128.119,228.076 127.577 C 228.176 127.035,228.355 126.592,228.475 126.592 C 228.594 126.592,228.767 126.120,228.860 125.542 C 228.952 124.964,229.145 124.491,229.287 124.491 C 229.430 124.491,229.547 124.196,229.547 123.835 C 229.547 123.473,229.664 123.178,229.806 123.178 C 229.949 123.178,230.142 122.705,230.234 122.127 C 230.326 121.550,230.476 121.077,230.567 121.077 C 230.768 121.077,231.292 119.897,231.531 118.910 C 231.626 118.513,231.795 118.188,231.906 118.188 C 232.016 118.188,232.182 117.715,232.274 117.137 C 232.367 116.559,232.559 116.087,232.702 116.087 C 232.844 116.087,232.961 115.791,232.961 115.430 C 232.961 115.069,233.069 114.773,233.201 114.773 C 233.333 114.773,233.520 114.301,233.618 113.723 C 233.715 113.145,233.903 112.672,234.035 112.672 C 234.167 112.672,234.274 112.436,234.274 112.147 C 234.274 111.858,234.382 111.622,234.514 111.622 C 234.646 111.622,234.833 111.149,234.931 110.571 C 235.029 109.993,235.201 109.521,235.315 109.521 C 235.428 109.521,235.596 109.048,235.689 108.470 C 235.781 107.892,235.973 107.420,236.116 107.420 C 236.259 107.420,236.376 107.124,236.376 106.763 C 236.376 106.402,236.494 106.106,236.638 106.106 C 236.783 106.106,236.901 105.929,236.901 105.712 C 236.901 105.180,226.318 105.118,225.729 105.647 C 224.481 106.766,224.032 107.302,224.032 107.671 C 224.032 107.822,223.913 107.945,223.769 107.945 C 223.624 107.945,223.524 108.033,223.545 108.142 C 223.636 108.609,223.156 110.571,222.950 110.571 C 222.826 110.571,222.649 111.044,222.557 111.622 C 222.464 112.200,222.285 112.672,222.159 112.672 C 222.033 112.672,221.930 112.968,221.930 113.329 C 221.930 113.690,221.814 113.986,221.671 113.986 C 221.528 113.986,221.336 114.458,221.243 115.036 C 221.151 115.614,220.972 116.087,220.846 116.087 C 220.720 116.087,220.617 116.382,220.617 116.743 C 220.617 117.104,220.500 117.400,220.358 117.400 C 220.215 117.400,220.023 117.873,219.930 118.450 C 219.838 119.028,219.669 119.501,219.556 119.501 C 219.443 119.501,219.270 119.974,219.173 120.552 C 219.075 121.129,218.887 121.602,218.756 121.602 C 218.624 121.602,218.516 121.825,218.516 122.097 C 218.516 122.370,218.340 122.931,218.124 123.345 C 217.908 123.759,217.731 124.304,217.730 124.557 C 217.729 124.810,217.623 125.016,217.495 125.016 C 217.367 125.016,217.183 125.548,217.085 126.198 C 216.988 126.848,216.797 127.380,216.662 127.380 C 216.526 127.380,216.415 127.617,216.415 127.905 C 216.415 128.194,216.310 128.431,216.182 128.431 C 216.054 128.431,215.870 128.963,215.772 129.613 C 215.675 130.263,215.484 130.794,215.348 130.794 C 215.213 130.794,215.102 131.031,215.102 131.320 C 215.102 131.609,214.997 131.845,214.869 131.845 C 214.741 131.845,214.556 132.377,214.459 133.027 C 214.361 133.677,214.181 134.209,214.058 134.209 C 213.935 134.209,213.755 134.681,213.657 135.258 C 213.560 135.835,213.372 136.374,213.240 136.455 C 213.109 136.537,213.001 136.899,213.001 137.260 C 213.001 137.621,212.894 137.851,212.763 137.770 C 212.632 137.689,212.443 138.214,212.344 138.936 C 212.245 139.658,212.056 140.250,211.925 140.250 C 211.795 140.250,211.684 140.634,211.679 141.103 C 211.675 141.573,211.497 142.186,211.285 142.466 C 210.920 142.950,210.900 142.933,210.900 142.154 C 210.900 141.701,210.792 141.264,210.660 141.183 C 210.528 141.101,210.340 140.563,210.243 139.987 C 210.146 139.411,209.958 138.872,209.826 138.791 C 209.694 138.709,209.586 138.354,209.586 138.002 C 209.586 137.649,209.468 137.360,209.324 137.360 C 209.179 137.360,209.060 137.154,209.059 136.901 C 209.059 136.648,208.881 136.103,208.665 135.689 C 208.450 135.275,208.273 134.714,208.273 134.441 C 208.273 134.169,208.164 133.946,208.031 133.946 C 207.898 133.946,207.707 133.562,207.607 133.093 C 207.507 132.623,207.335 132.121,207.227 131.976 C 207.118 131.832,206.949 131.271,206.851 130.729 C 206.753 130.187,206.561 129.744,206.423 129.744 C 206.285 129.744,206.172 129.448,206.172 129.087 C 206.172 128.726,206.069 128.431,205.943 128.431 C 205.817 128.431,205.638 127.958,205.546 127.380 C 205.453 126.802,205.261 126.330,205.118 126.330 C 204.976 126.330,204.859 126.096,204.859 125.810 C 204.859 125.225,204.078 123.117,203.786 122.915 C 203.682 122.843,203.513 122.223,203.410 121.536 C 203.307 120.850,203.119 120.289,202.991 120.289 C 202.862 120.289,202.758 120.112,202.758 119.895 C 202.758 119.678,202.651 119.501,202.520 119.501 C 202.389 119.501,202.200 118.910,202.101 118.188 C 202.002 117.466,201.819 116.875,201.694 116.875 C 201.570 116.875,201.390 116.460,201.295 115.952 C 201.200 115.445,201.018 114.966,200.889 114.886 C 200.761 114.807,200.657 114.454,200.657 114.101 C 200.657 113.749,200.540 113.460,200.397 113.460 C 200.254 113.460,200.062 112.988,199.970 112.410 C 199.877 111.832,199.698 111.359,199.572 111.359 C 199.446 111.359,199.343 111.064,199.343 110.703 C 199.343 110.341,199.227 110.046,199.084 110.046 C 198.941 110.046,198.749 109.573,198.656 108.995 C 198.564 108.418,198.385 107.945,198.259 107.945 C 198.133 107.945,198.030 107.778,198.030 107.573 C 198.030 107.369,197.619 106.778,197.116 106.260 L 196.201 105.318 190.800 105.318 L 185.400 105.318 185.581 106.303 M240.578 131.057 L 240.578 156.796 257.255 156.796 L 273.933 156.796 273.933 152.331 L 273.933 147.866 263.033 147.866 L 252.134 147.866 252.134 141.694 L 252.134 135.522 260.670 135.522 L 269.206 135.522 269.206 131.057 L 269.206 126.592 260.670 126.592 L 252.134 126.592 252.134 120.420 L 252.134 114.248 263.033 114.248 L 273.933 114.248 273.933 109.783 L 273.933 105.318 257.255 105.318 L 240.578 105.318 240.578 131.057 M288.641 193.843 L 288.641 216.444 300.578 216.364 C 309.689 216.303,312.593 216.206,312.843 215.955 C 313.024 215.775,313.502 215.627,313.907 215.627 C 314.311 215.627,314.642 215.518,314.642 215.385 C 314.642 215.154,316.138 214.685,316.546 214.789 C 316.655 214.817,316.743 214.721,316.743 214.576 C 316.743 214.432,316.921 214.314,317.137 214.314 C 317.354 214.314,317.531 214.210,317.531 214.084 C 317.531 213.958,317.888 213.783,318.324 213.696 C 319.116 213.537,319.258 213.449,320.704 212.213 C 321.637 211.414,321.993 211.071,323.511 209.501 C 323.906 209.092,324.478 208.502,324.783 208.187 C 325.088 207.873,325.425 207.339,325.531 207.000 C 325.638 206.660,325.947 206.161,326.218 205.890 C 326.489 205.619,326.785 205.099,326.877 204.734 C 326.968 204.369,327.137 204.071,327.253 204.071 C 327.368 204.071,327.543 203.480,327.643 202.758 C 327.742 202.035,327.931 201.445,328.061 201.445 C 328.192 201.445,328.299 201.159,328.299 200.810 C 328.299 200.461,328.447 200.126,328.628 200.066 C 328.877 199.983,328.956 198.550,328.956 194.091 C 328.956 189.632,328.877 188.199,328.628 188.116 C 328.447 188.055,328.299 187.602,328.299 187.109 C 328.299 186.615,328.196 186.211,328.070 186.211 C 327.944 186.211,327.767 185.749,327.677 185.183 C 327.586 184.617,327.423 184.115,327.315 184.067 C 327.029 183.940,326.198 182.295,326.198 181.857 C 326.198 181.652,326.080 181.484,325.936 181.484 C 325.791 181.484,325.673 181.315,325.673 181.109 C 325.673 180.903,325.378 180.502,325.016 180.218 C 324.655 179.934,324.360 179.570,324.360 179.411 C 324.360 179.251,324.222 179.120,324.053 179.120 C 323.885 179.120,323.814 179.053,323.896 178.972 C 324.091 178.776,321.868 176.494,321.482 176.494 C 321.317 176.494,320.909 176.198,320.575 175.837 C 320.240 175.476,319.832 175.181,319.668 175.181 C 319.504 175.181,319.370 175.065,319.370 174.923 C 319.370 174.781,319.074 174.591,318.713 174.500 C 318.352 174.410,318.056 174.259,318.056 174.166 C 318.056 173.880,316.511 173.293,316.224 173.470 C 316.076 173.561,315.955 173.511,315.955 173.358 C 315.955 173.205,315.778 173.079,315.561 173.079 C 315.345 173.079,315.167 172.967,315.167 172.830 C 315.167 172.693,314.458 172.500,313.592 172.402 C 312.725 172.304,312.016 172.121,312.016 171.995 C 312.016 171.869,311.491 171.766,310.849 171.766 C 310.208 171.766,309.610 171.648,309.521 171.504 C 309.417 171.336,305.622 171.241,299.000 171.241 L 288.641 171.241 288.641 193.843 M308.711 179.610 C 308.788 179.735,309.344 179.903,309.946 179.984 C 310.548 180.065,311.113 180.235,311.200 180.361 C 311.365 180.601,313.141 181.484,313.458 181.484 C 313.913 181.484,316.355 184.346,316.650 185.227 C 316.735 185.479,316.909 185.686,317.037 185.686 C 317.164 185.686,317.272 185.893,317.277 186.146 C 317.281 186.399,317.459 186.835,317.671 187.115 C 317.883 187.396,318.056 187.947,318.056 188.341 C 318.056 188.735,318.204 189.106,318.385 189.166 C 318.823 189.312,318.860 198.742,318.424 199.025 C 318.265 199.128,318.065 199.508,317.980 199.869 C 317.690 201.105,317.140 202.495,316.942 202.495 C 316.833 202.495,316.743 202.655,316.743 202.850 C 316.743 203.045,316.418 203.557,316.021 203.986 C 315.624 204.416,315.130 205.016,314.925 205.321 C 314.719 205.626,314.276 205.944,313.940 206.029 C 313.604 206.113,313.329 206.298,313.329 206.440 C 313.329 206.581,313.152 206.697,312.935 206.697 C 312.718 206.697,312.541 206.813,312.541 206.955 C 312.541 207.097,312.216 207.292,311.819 207.389 C 311.422 207.487,311.029 207.669,310.946 207.794 C 310.864 207.919,310.003 208.096,309.034 208.186 C 308.064 208.277,307.209 208.451,307.133 208.575 C 307.057 208.698,305.111 208.798,302.808 208.798 L 298.621 208.798 298.621 194.091 L 298.621 179.383 303.596 179.383 C 306.332 179.383,308.634 179.485,308.711 179.610 " stroke="none" fill="#fcfcfc" fill-rule="evenodd"></path><path id="path1" d="M177.282 171.995 C 177.282 172.120,176.724 172.286,176.043 172.363 C 175.361 172.440,174.761 172.632,174.708 172.791 C 174.655 172.950,174.395 173.079,174.129 173.079 C 173.577 173.079,172.033 173.901,172.031 174.196 C 172.030 174.304,171.868 174.393,171.672 174.393 C 171.475 174.393,171.098 174.681,170.833 175.033 C 170.569 175.386,170.108 175.736,169.809 175.811 C 169.510 175.886,169.038 176.332,168.760 176.804 C 168.481 177.275,167.980 177.914,167.646 178.223 C 167.312 178.533,167.039 178.921,167.039 179.085 C 167.039 179.249,166.926 179.383,166.788 179.383 C 166.650 179.383,166.460 179.796,166.365 180.302 C 166.270 180.808,166.087 181.221,165.959 181.221 C 165.831 181.221,165.726 181.507,165.726 181.856 C 165.726 182.205,165.578 182.540,165.397 182.600 C 165.150 182.683,165.069 183.922,165.069 187.600 C 165.069 191.161,165.158 192.578,165.397 192.817 C 165.578 192.997,165.726 193.417,165.726 193.749 C 165.726 194.081,165.842 194.353,165.985 194.353 C 166.128 194.353,166.320 194.826,166.413 195.404 C 166.505 195.982,166.684 196.454,166.810 196.454 C 166.936 196.454,167.039 196.632,167.039 196.848 C 167.039 197.065,167.157 197.242,167.301 197.242 C 167.446 197.242,167.564 197.411,167.564 197.617 C 167.564 197.824,167.726 198.154,167.923 198.352 C 168.121 198.550,168.365 198.972,168.466 199.290 C 168.567 199.608,168.760 199.869,168.895 199.869 C 169.030 199.869,169.140 200.046,169.140 200.263 C 169.140 200.479,169.250 200.657,169.385 200.657 C 169.520 200.657,169.708 200.905,169.805 201.208 C 169.901 201.511,170.376 202.191,170.861 202.718 C 172.983 205.028,176.698 208.798,176.851 208.798 C 176.944 208.798,177.492 209.271,178.070 209.849 C 178.647 210.427,179.248 210.900,179.405 210.900 C 179.562 210.900,180.056 211.313,180.504 211.819 C 180.952 212.324,181.477 212.738,181.672 212.738 C 181.866 212.738,182.092 212.911,182.173 213.122 C 182.254 213.333,182.575 213.586,182.887 213.685 C 183.199 213.783,183.631 214.066,183.848 214.314 C 184.064 214.561,184.508 214.848,184.833 214.951 C 185.158 215.053,185.424 215.247,185.424 215.382 C 185.424 215.517,185.601 215.627,185.817 215.627 C 186.034 215.627,186.211 215.743,186.211 215.885 C 186.211 216.026,186.498 216.214,186.849 216.302 C 187.200 216.390,187.551 216.629,187.629 216.833 C 187.707 217.036,188.011 217.203,188.304 217.203 C 188.598 217.203,188.838 217.321,188.838 217.466 C 188.838 217.610,189.002 217.728,189.204 217.728 C 189.405 217.728,189.638 217.905,189.721 218.122 C 189.804 218.339,190.112 218.516,190.405 218.516 C 190.699 218.516,190.939 218.625,190.939 218.758 C 190.939 218.891,191.293 219.078,191.727 219.173 C 192.160 219.268,192.515 219.455,192.515 219.588 C 192.515 219.720,193.165 219.829,193.959 219.829 C 194.754 219.829,195.404 219.724,195.404 219.596 C 195.404 219.467,195.817 219.285,196.323 219.190 C 196.829 219.095,197.242 218.918,197.242 218.795 C 197.242 218.673,197.538 218.499,197.899 218.408 C 198.260 218.318,198.555 218.128,198.555 217.986 C 198.555 217.844,198.733 217.728,198.949 217.728 C 199.166 217.728,199.343 217.610,199.343 217.466 C 199.343 217.321,199.512 217.203,199.719 217.203 C 199.925 217.203,200.255 217.055,200.452 216.875 C 200.874 216.488,201.678 215.960,202.232 215.706 C 202.449 215.606,202.783 215.371,202.973 215.182 C 203.164 214.993,203.477 214.839,203.668 214.839 C 203.859 214.839,204.083 214.660,204.167 214.441 C 204.251 214.222,204.619 213.930,204.983 213.791 C 205.348 213.652,205.647 213.426,205.647 213.287 C 205.647 213.149,205.868 212.966,206.139 212.880 C 206.410 212.794,207.054 212.313,207.571 211.811 C 208.087 211.310,208.580 210.900,208.665 210.900 C 208.846 210.900,209.304 210.528,210.362 209.521 C 210.780 209.123,211.192 208.798,211.277 208.798 C 211.536 208.798,215.890 204.389,215.890 204.127 C 215.890 203.992,216.302 203.481,216.806 202.992 C 217.310 202.502,217.724 201.970,217.725 201.810 C 217.727 201.649,218.024 201.296,218.385 201.025 C 218.746 200.754,219.041 200.391,219.041 200.219 C 219.041 200.047,219.203 199.745,219.401 199.547 C 219.598 199.349,219.852 198.898,219.964 198.543 C 220.075 198.189,220.386 197.708,220.654 197.475 C 220.922 197.241,221.219 196.650,221.315 196.161 C 221.410 195.672,221.558 195.213,221.643 195.141 C 222.053 194.795,222.483 193.703,222.629 192.633 C 222.719 191.982,222.893 191.387,223.018 191.310 C 223.314 191.127,223.312 183.585,223.016 183.585 C 222.890 183.585,222.720 183.085,222.639 182.474 C 222.557 181.864,222.364 181.322,222.210 181.271 C 222.056 181.219,221.930 180.951,221.930 180.674 C 221.930 180.397,221.822 180.171,221.689 180.171 C 221.556 180.171,221.375 179.841,221.286 179.439 C 221.198 179.036,220.834 178.488,220.477 178.220 C 220.121 177.952,219.829 177.595,219.829 177.425 C 219.829 177.094,218.483 175.706,218.161 175.706 C 218.054 175.706,217.671 175.410,217.310 175.049 C 216.949 174.688,216.482 174.393,216.272 174.393 C 216.062 174.393,215.890 174.273,215.890 174.126 C 215.890 173.979,215.506 173.693,215.036 173.491 C 214.567 173.289,213.751 172.936,213.224 172.707 C 212.696 172.479,211.958 172.292,211.582 172.292 C 211.207 172.292,210.900 172.173,210.900 172.029 C 210.900 171.865,209.367 171.766,206.829 171.766 C 204.590 171.766,202.758 171.871,202.758 171.999 C 202.758 172.126,202.108 172.312,201.313 172.411 C 200.519 172.511,199.869 172.678,199.869 172.783 C 199.869 172.888,199.447 173.126,198.932 173.313 C 198.417 173.499,197.932 173.818,197.854 174.022 C 197.775 174.226,197.484 174.393,197.206 174.393 C 196.928 174.393,196.632 174.570,196.549 174.787 C 196.466 175.003,196.234 175.181,196.032 175.181 C 195.831 175.181,195.666 175.291,195.666 175.426 C 195.666 175.560,195.447 175.740,195.179 175.825 C 194.910 175.910,194.581 176.227,194.446 176.529 C 194.204 177.071,194.195 177.070,193.555 176.396 C 193.200 176.021,192.815 175.713,192.700 175.710 C 192.585 175.708,192.195 175.410,191.834 175.049 C 191.473 174.688,191.006 174.393,190.796 174.393 C 190.586 174.393,190.414 174.300,190.414 174.187 C 190.414 173.868,188.951 173.079,188.360 173.079 C 188.069 173.079,187.789 172.954,187.738 172.800 C 187.687 172.646,187.145 172.453,186.534 172.371 C 185.923 172.289,185.424 172.120,185.424 171.994 C 185.424 171.869,183.592 171.766,181.353 171.766 C 179.114 171.766,177.282 171.869,177.282 171.995 M238.477 171.995 C 238.477 172.121,237.886 172.302,237.163 172.398 C 236.441 172.494,235.850 172.672,235.850 172.793 C 235.850 172.914,235.499 173.084,235.071 173.170 C 234.642 173.255,234.051 173.566,233.757 173.859 C 233.464 174.153,233.111 174.393,232.973 174.393 C 232.835 174.393,232.444 174.659,232.104 174.984 C 231.764 175.309,231.264 175.701,230.994 175.855 C 230.723 176.009,230.375 176.357,230.221 176.629 C 230.067 176.901,229.565 177.491,229.105 177.939 C 228.646 178.388,228.190 179.073,228.092 179.463 C 227.994 179.852,227.809 180.171,227.680 180.171 C 227.551 180.171,227.446 180.407,227.446 180.696 C 227.446 180.985,227.341 181.221,227.213 181.221 C 227.085 181.221,226.900 181.753,226.803 182.403 C 226.705 183.053,226.515 183.585,226.379 183.585 C 226.237 183.585,226.133 185.195,226.133 187.393 C 226.133 189.488,226.236 191.202,226.361 191.202 C 226.487 191.202,226.670 191.911,226.768 192.777 C 226.866 193.644,227.059 194.353,227.196 194.353 C 227.334 194.353,227.446 194.531,227.446 194.747 C 227.446 194.964,227.549 195.141,227.675 195.141 C 227.801 195.141,227.980 195.614,228.072 196.192 C 228.164 196.770,228.357 197.242,228.499 197.242 C 228.642 197.242,228.759 197.420,228.759 197.636 C 228.759 197.853,228.875 198.030,229.017 198.030 C 229.158 198.030,229.348 198.326,229.439 198.687 C 229.530 199.048,229.701 199.343,229.820 199.343 C 229.939 199.343,230.121 199.609,230.223 199.934 C 230.326 200.259,230.629 200.716,230.898 200.950 C 231.166 201.184,231.385 201.499,231.385 201.652 C 231.385 201.804,231.858 202.406,232.436 202.989 C 233.014 203.573,233.487 204.125,233.487 204.216 C 233.487 204.431,237.873 208.798,238.089 208.798 C 238.180 208.798,238.596 209.123,239.014 209.521 C 240.060 210.516,240.530 210.900,240.703 210.900 C 240.784 210.900,241.236 211.297,241.708 211.783 C 242.180 212.269,242.817 212.746,243.123 212.844 C 243.430 212.941,243.747 213.193,243.828 213.405 C 243.909 213.616,244.131 213.789,244.320 213.789 C 244.509 213.789,244.834 214.025,245.043 214.314 C 245.251 214.603,245.564 214.839,245.738 214.839 C 245.913 214.839,246.217 214.987,246.414 215.167 C 246.836 215.554,247.640 216.082,248.194 216.336 C 248.411 216.436,248.744 216.671,248.935 216.860 C 249.126 217.049,249.451 217.203,249.658 217.203 C 249.864 217.203,250.033 217.321,250.033 217.466 C 250.033 217.610,250.210 217.728,250.427 217.728 C 250.643 217.728,250.821 217.844,250.821 217.986 C 250.821 218.128,251.116 218.318,251.477 218.408 C 251.838 218.499,252.134 218.669,252.134 218.786 C 252.134 218.904,252.489 219.078,252.922 219.173 C 253.355 219.268,253.710 219.455,253.710 219.588 C 253.710 219.720,254.419 219.829,255.286 219.829 C 256.152 219.829,256.861 219.720,256.861 219.588 C 256.861 219.455,257.216 219.268,257.649 219.173 C 258.083 219.078,258.437 218.904,258.437 218.786 C 258.437 218.669,258.733 218.499,259.094 218.408 C 259.455 218.318,259.750 218.128,259.750 217.986 C 259.750 217.844,259.928 217.728,260.144 217.728 C 260.361 217.728,260.538 217.610,260.538 217.466 C 260.538 217.321,260.778 217.203,261.072 217.203 C 261.365 217.203,261.669 217.036,261.748 216.833 C 261.826 216.629,262.177 216.390,262.527 216.302 C 262.878 216.214,263.165 216.026,263.165 215.885 C 263.165 215.743,263.342 215.627,263.559 215.627 C 263.775 215.627,263.953 215.517,263.953 215.382 C 263.953 215.247,264.219 215.053,264.544 214.951 C 264.869 214.848,265.326 214.545,265.559 214.276 C 265.793 214.008,266.093 213.789,266.225 213.789 C 266.477 213.789,267.665 212.853,268.979 211.622 C 269.402 211.225,269.863 210.900,270.003 210.900 C 270.142 210.900,270.715 210.427,271.276 209.849 C 271.837 209.271,272.385 208.798,272.494 208.798 C 272.903 208.798,278.923 202.382,278.923 201.947 C 278.923 201.801,279.219 201.408,279.580 201.074 C 279.941 200.739,280.236 200.331,280.236 200.167 C 280.236 200.003,280.352 199.869,280.494 199.869 C 280.636 199.869,280.826 199.573,280.916 199.212 C 281.007 198.851,281.174 198.555,281.287 198.555 C 281.400 198.555,281.567 198.260,281.657 197.899 C 281.748 197.538,281.938 197.242,282.080 197.242 C 282.222 197.242,282.337 197.065,282.337 196.848 C 282.337 196.632,282.441 196.454,282.567 196.454 C 282.693 196.454,282.871 195.982,282.964 195.404 C 283.056 194.826,283.240 194.353,283.372 194.353 C 283.505 194.353,283.694 193.702,283.794 192.905 C 283.893 192.109,284.079 191.393,284.207 191.314 C 284.507 191.128,284.511 183.585,284.211 183.585 C 284.085 183.585,283.917 183.095,283.837 182.497 C 283.756 181.898,283.578 181.337,283.441 181.249 C 283.304 181.162,283.108 180.706,283.006 180.236 C 282.904 179.767,282.712 179.383,282.579 179.383 C 282.446 179.383,282.337 179.249,282.337 179.085 C 282.337 178.921,282.042 178.513,281.681 178.178 C 281.320 177.843,281.024 177.474,281.024 177.357 C 281.024 177.010,279.717 175.706,279.369 175.706 C 279.192 175.706,278.826 175.410,278.555 175.049 C 278.284 174.688,277.901 174.393,277.705 174.393 C 277.508 174.393,277.347 174.304,277.346 174.196 C 277.343 173.901,275.799 173.079,275.247 173.079 C 274.982 173.079,274.721 172.950,274.669 172.791 C 274.616 172.632,274.015 172.440,273.333 172.363 C 272.652 172.286,272.095 172.120,272.095 171.995 C 272.095 171.869,270.263 171.766,268.024 171.766 C 265.785 171.766,263.953 171.871,263.953 171.999 C 263.953 172.126,263.303 172.312,262.508 172.411 C 261.714 172.511,261.064 172.689,261.064 172.807 C 261.064 172.926,260.795 173.090,260.468 173.172 C 260.140 173.254,259.628 173.548,259.331 173.825 C 259.034 174.102,258.534 174.410,258.220 174.510 C 257.906 174.609,257.649 174.801,257.649 174.936 C 257.649 175.070,257.516 175.181,257.352 175.181 C 257.189 175.181,256.672 175.587,256.203 176.083 L 255.352 176.986 254.795 176.346 C 254.489 175.994,254.089 175.706,253.905 175.706 C 253.722 175.706,253.350 175.410,253.079 175.049 C 252.808 174.688,252.394 174.393,252.160 174.393 C 251.926 174.393,251.591 174.162,251.415 173.880 C 251.239 173.599,250.679 173.290,250.170 173.195 C 249.661 173.099,249.245 172.920,249.245 172.797 C 249.245 172.673,248.654 172.494,247.932 172.398 C 247.209 172.302,246.619 172.121,246.619 171.995 C 246.619 171.869,244.787 171.766,242.548 171.766 C 240.309 171.766,238.477 171.869,238.477 171.995 M185.686 179.648 C 185.758 179.749,186.261 179.914,186.802 180.013 C 187.344 180.113,187.787 180.307,187.787 180.445 C 187.787 180.583,187.962 180.696,188.176 180.696 C 188.671 180.696,191.202 183.238,191.202 183.736 C 191.202 183.942,191.320 184.110,191.464 184.110 C 191.609 184.110,191.727 184.227,191.727 184.370 C 191.727 184.513,191.930 184.867,192.179 185.158 C 192.896 185.995,195.929 185.868,195.929 185.001 C 195.929 184.800,196.039 184.636,196.174 184.636 C 196.309 184.636,196.500 184.380,196.599 184.067 C 196.808 183.410,199.421 180.696,199.846 180.696 C 200.003 180.696,200.131 180.591,200.131 180.463 C 200.131 180.334,200.574 180.146,201.116 180.045 C 201.657 179.943,202.173 179.742,202.262 179.598 C 202.472 179.258,208.019 179.238,208.239 179.577 C 208.330 179.717,208.848 179.914,209.389 180.013 C 209.931 180.113,210.374 180.307,210.374 180.445 C 210.374 180.583,210.529 180.696,210.718 180.696 C 211.202 180.696,213.789 183.241,213.789 183.717 C 213.789 183.933,213.905 184.110,214.046 184.110 C 214.188 184.110,214.378 184.406,214.469 184.767 C 214.559 185.128,214.739 185.424,214.868 185.424 C 214.996 185.424,215.102 185.778,215.102 186.211 C 215.102 186.645,215.220 186.999,215.364 186.999 C 215.513 186.999,215.627 187.743,215.627 188.707 C 215.627 189.670,215.513 190.414,215.364 190.414 C 215.220 190.414,215.102 190.827,215.102 191.333 C 215.102 191.838,214.985 192.252,214.842 192.252 C 214.699 192.252,214.507 192.725,214.415 193.303 C 214.322 193.880,214.156 194.353,214.046 194.353 C 213.936 194.353,213.771 194.649,213.681 195.010 C 213.590 195.371,213.400 195.666,213.258 195.666 C 213.117 195.666,213.001 195.844,213.001 196.060 C 213.001 196.277,212.890 196.454,212.756 196.454 C 212.621 196.454,212.435 196.694,212.342 196.986 C 212.249 197.279,211.784 197.899,211.308 198.365 C 210.833 198.831,210.361 199.478,210.260 199.803 C 210.159 200.128,209.974 200.394,209.848 200.394 C 209.723 200.394,208.971 201.044,208.176 201.838 C 207.382 202.633,206.651 203.283,206.552 203.283 C 206.454 203.283,205.914 203.756,205.354 204.334 C 204.793 204.911,204.210 205.384,204.059 205.384 C 203.907 205.384,203.509 205.680,203.175 206.041 C 202.840 206.402,202.475 206.697,202.364 206.697 C 202.252 206.697,201.888 206.993,201.553 207.354 C 201.218 207.715,200.767 208.011,200.551 208.011 C 200.334 208.011,200.063 208.158,199.947 208.339 C 199.702 208.723,198.881 209.274,198.227 209.493 C 197.974 209.578,197.768 209.752,197.768 209.880 C 197.768 210.007,197.527 210.112,197.234 210.112 C 196.941 210.112,196.632 210.289,196.549 210.506 C 196.466 210.722,196.234 210.900,196.032 210.900 C 195.831 210.900,195.666 211.018,195.666 211.162 C 195.666 211.307,195.436 211.425,195.154 211.425 C 194.872 211.425,194.531 211.623,194.395 211.866 C 194.164 212.280,194.120 212.280,193.707 211.866 C 193.464 211.623,193.096 211.425,192.890 211.425 C 192.684 211.425,192.515 211.307,192.515 211.162 C 192.515 211.018,192.337 210.900,192.121 210.900 C 191.904 210.900,191.727 210.784,191.727 210.642 C 191.727 210.500,191.431 210.310,191.070 210.219 C 190.709 210.129,190.414 209.962,190.414 209.849 C 190.414 209.736,190.118 209.569,189.757 209.478 C 189.396 209.388,189.100 209.198,189.100 209.056 C 189.100 208.914,188.923 208.798,188.707 208.798 C 188.490 208.798,188.313 208.688,188.313 208.553 C 188.313 208.419,188.047 208.225,187.722 208.123 C 187.397 208.021,186.870 207.658,186.552 207.317 C 186.234 206.976,185.901 206.697,185.811 206.697 C 185.722 206.697,185.484 206.550,185.283 206.369 C 184.476 205.646,184.125 205.384,183.959 205.384 C 183.864 205.384,183.327 204.911,182.767 204.334 C 182.206 203.756,181.641 203.283,181.512 203.283 C 181.197 203.283,177.544 199.656,177.544 199.344 C 177.544 199.209,177.190 198.736,176.756 198.293 C 176.323 197.850,175.968 197.373,175.968 197.233 C 175.968 197.094,175.858 196.980,175.724 196.980 C 175.589 196.980,175.395 196.714,175.292 196.389 C 175.189 196.064,174.880 195.602,174.605 195.362 C 174.330 195.122,174.036 194.502,173.952 193.983 C 173.868 193.464,173.701 193.040,173.582 193.040 C 173.463 193.040,173.295 192.597,173.208 192.055 C 173.122 191.513,172.939 190.865,172.802 190.614 C 172.491 190.042,172.474 186.999,172.782 186.999 C 172.908 186.999,173.077 186.500,173.159 185.889 C 173.241 185.278,173.434 184.736,173.588 184.685 C 173.742 184.634,173.870 184.395,173.873 184.154 C 173.876 183.913,174.475 183.185,175.204 182.534 C 175.933 181.884,176.812 181.097,177.157 180.785 C 177.502 180.473,178.173 180.134,178.649 180.032 C 179.125 179.931,179.635 179.751,179.782 179.633 C 180.352 179.177,185.360 179.189,185.686 179.648 M247.144 179.661 C 247.217 179.771,247.719 179.943,248.261 180.045 C 248.802 180.146,249.245 180.334,249.245 180.463 C 249.245 180.591,249.373 180.696,249.530 180.696 C 249.965 180.696,252.571 183.417,252.786 184.095 C 253.282 185.658,256.565 186.529,257.048 185.227 C 257.142 184.974,257.434 184.576,257.697 184.342 C 257.960 184.109,258.175 183.785,258.175 183.623 C 258.175 183.181,260.735 180.696,261.192 180.696 C 261.410 180.696,261.589 180.583,261.589 180.445 C 261.589 180.307,262.032 180.113,262.574 180.013 C 263.116 179.914,263.633 179.718,263.723 179.579 C 263.943 179.240,269.126 179.253,269.538 179.593 C 269.716 179.741,270.305 179.944,270.847 180.045 C 271.389 180.146,271.832 180.334,271.832 180.463 C 271.832 180.591,271.955 180.696,272.106 180.696 C 272.428 180.696,275.246 183.529,275.246 183.852 C 275.246 183.974,275.435 184.262,275.666 184.493 C 275.897 184.724,276.149 185.382,276.226 185.956 C 276.303 186.530,276.469 186.999,276.594 186.999 C 276.719 186.999,276.822 187.768,276.822 188.707 C 276.822 189.645,276.719 190.414,276.594 190.414 C 276.468 190.414,276.302 190.971,276.225 191.653 C 276.149 192.334,275.956 192.935,275.797 192.988 C 275.639 193.041,275.509 193.369,275.509 193.719 C 275.509 194.068,275.391 194.353,275.246 194.353 C 275.102 194.353,274.984 194.522,274.984 194.728 C 274.984 194.935,274.822 195.265,274.624 195.463 C 274.427 195.661,274.182 196.083,274.081 196.401 C 273.980 196.719,273.787 196.980,273.653 196.980 C 273.518 196.980,273.408 197.094,273.408 197.233 C 273.408 197.373,273.053 197.850,272.620 198.293 C 272.186 198.736,271.832 199.209,271.832 199.344 C 271.832 199.656,268.179 203.283,267.865 203.283 C 267.736 203.283,267.157 203.756,266.579 204.334 C 266.001 204.911,265.464 205.384,265.386 205.384 C 265.249 205.384,264.869 205.674,264.094 206.369 C 263.892 206.550,263.654 206.697,263.565 206.697 C 263.476 206.697,263.142 206.976,262.824 207.317 C 262.506 207.658,261.980 208.021,261.655 208.123 C 261.330 208.225,261.064 208.419,261.064 208.553 C 261.064 208.688,260.886 208.798,260.670 208.798 C 260.453 208.798,260.276 208.909,260.276 209.043 C 260.276 209.178,260.010 209.371,259.685 209.473 C 259.360 209.574,259.035 209.730,258.963 209.819 C 258.752 210.078,257.820 210.639,257.321 210.806 C 257.068 210.891,256.861 211.065,256.861 211.193 C 256.861 211.320,256.693 211.425,256.486 211.425 C 256.280 211.425,255.912 211.623,255.670 211.866 C 255.256 212.280,255.213 212.280,254.981 211.866 C 254.845 211.623,254.504 211.425,254.222 211.425 C 253.940 211.425,253.710 211.307,253.710 211.162 C 253.710 211.018,253.533 210.900,253.316 210.900 C 253.099 210.900,252.922 210.784,252.922 210.642 C 252.922 210.500,252.626 210.310,252.265 210.219 C 251.904 210.129,251.609 209.962,251.609 209.849 C 251.609 209.736,251.313 209.569,250.952 209.478 C 250.591 209.388,250.295 209.198,250.295 209.056 C 250.295 208.914,250.131 208.798,249.930 208.798 C 249.728 208.798,249.496 208.621,249.413 208.404 C 249.329 208.188,249.075 208.011,248.847 208.011 C 248.619 208.011,248.158 207.715,247.823 207.354 C 247.489 206.993,247.124 206.697,247.012 206.697 C 246.901 206.697,246.536 206.402,246.202 206.041 C 245.867 205.680,245.469 205.384,245.318 205.384 C 245.166 205.384,244.583 204.911,244.023 204.334 C 243.462 203.756,242.925 203.283,242.830 203.283 C 242.642 203.283,242.053 202.826,241.550 202.290 C 240.148 200.794,239.720 200.394,239.525 200.394 C 239.401 200.394,239.217 200.132,239.115 199.812 C 239.014 199.492,238.546 198.856,238.075 198.399 C 237.604 197.942,237.139 197.317,237.042 197.011 C 236.945 196.705,236.755 196.454,236.621 196.454 C 236.486 196.454,236.376 196.277,236.376 196.060 C 236.376 195.844,236.260 195.666,236.118 195.666 C 235.976 195.666,235.786 195.371,235.696 195.010 C 235.605 194.649,235.440 194.353,235.330 194.353 C 235.220 194.353,235.054 193.880,234.962 193.303 C 234.869 192.725,234.677 192.252,234.534 192.252 C 234.391 192.252,234.274 191.838,234.274 191.333 C 234.274 190.827,234.156 190.414,234.012 190.414 C 233.864 190.414,233.749 189.670,233.749 188.707 C 233.749 187.743,233.864 186.999,234.012 186.999 C 234.156 186.999,234.274 186.645,234.274 186.211 C 234.274 185.778,234.383 185.424,234.516 185.424 C 234.649 185.424,234.838 185.061,234.935 184.618 C 235.125 183.751,236.880 181.836,238.195 181.060 C 238.639 180.797,239.002 180.491,239.002 180.380 C 239.002 180.268,239.475 180.101,240.053 180.009 C 240.630 179.917,241.103 179.744,241.103 179.626 C 241.103 179.169,246.839 179.202,247.144 179.661 " stroke="none" fill="#fc0404" fill-rule="evenodd"></path><path id="path2" d="" stroke="none" fill="#fcbc100" fill-rule="evenodd"></path><path id="path3" d="" stroke="none" fill="#fcbc100" fill-rule="evenodd"></path><path id="path4" d="" stroke="none" fill="#fcbc100" fill-rule="evenodd"></path></g></svg>